<svg width="1152" height="305" viewBox="0 0 1152 305" fill="none" xmlns="http://www.w3.org/2000/svg">
<path d="M-225 192H-198.3C-171.7 192 -118 192 -65 170.7C-11.7 149 42 107 95 122.7C148.3 139 202 213 255 245.3C308.3 277 362 267 415 245.3C468.3 224 522 192 575 186.7C628.3 181 682 203 735 218.7C788.3 235 842 245 895 229.3C948.3 213 1002 171 1055 165.3C1108.3 160 1162 192 1188 208L1215 224V320H1188.3C1161.7 320 1108 320 1055 320C1001.7 320 948 320 895 320C841.7 320 788 320 735 320C681.7 320 628 320 575 320C521.7 320 468 320 415 320C361.7 320 308 320 255 320C201.7 320 148 320 95 320C41.7 320 -12 320 -65 320C-118.3 320 -172 320 -198 320H-225V192Z" fill="rgb(40, 90, 257, 0.3)"/>
</svg>
